<svg xmlns="http://www.w3.org/2000/svg" xmlns:xlink="http://www.w3.org/1999/xlink" xmlns:lucid="lucid" width="1241" height="554.66"><g transform="translate(1840.5 -19.5)" lucid:page-tab-id="0_0"><path d="M-2000 0h1500v1000h-1500z" fill="#fff"/><path d="M-1640 25a5 5 0 0 1 5-5h350a5 5 0 0 1 5 5v150a5 5 0 0 1-5 5h-350a5 5 0 0 1-5-5z" fill="#fff"/><path d="M-1640 60V25a5 5 0 0 1 5-5h350a5 5 0 0 1 5 5v35" fill="#dedeff"/><path d="M-1640 25a5 5 0 0 1 5-5h350a5 5 0 0 1 5 5v150a5 5 0 0 1-5 5h-350a5 5 0 0 1-5-5zM-1640 60h360M-1460 60v120" stroke="#282c33" fill="none"/><use xlink:href="#a" transform="matrix(1,0,0,1,-1630,20) translate(0 26.089501953125)"/><use xlink:href="#b" transform="matrix(1,0,0,1,-1635,62.5) translate(0 18.589501953125)"/><use xlink:href="#c" transform="matrix(1,0,0,1,-1455,62.5) translate(0 18.589501953125)"/><use xlink:href="#d" transform="matrix(1,0,0,1,-1635,92.5) translate(0 18.589501953125)"/><use xlink:href="#e" transform="matrix(1,0,0,1,-1455,92.5) translate(0 18.589501953125)"/><use xlink:href="#f" transform="matrix(1,0,0,1,-1635,122.5) translate(0 18.589501953125)"/><use xlink:href="#c" transform="matrix(1,0,0,1,-1455,122.5) translate(0 18.589501953125)"/><use xlink:href="#g" transform="matrix(1,0,0,1,-1635,152.5) translate(0 18.589501953125)"/><use xlink:href="#h" transform="matrix(1,0,0,1,-1455,152.5) translate(0 18.589501953125)"/><path d="M-1021.14 25a5 5 0 0 1 5-5h350a5 5 0 0 1 5 5v120a5 5 0 0 1-5 5h-350a5 5 0 0 1-5-5z" fill="#fff"/><path d="M-1021.14 60V25a5 5 0 0 1 5-5h350a5 5 0 0 1 5 5v35" fill="#dedeff"/><path d="M-1021.14 25a5 5 0 0 1 5-5h350a5 5 0 0 1 5 5v120a5 5 0 0 1-5 5h-350a5 5 0 0 1-5-5zM-1021.14 60h360M-841.14 60v90" stroke="#282c33" fill="none"/><use xlink:href="#i" transform="matrix(1,0,0,1,-1011.1448783503406,20.00000691264148) translate(0 26.089501953125)"/><use xlink:href="#f" transform="matrix(1,0,0,1,-1016.1448783503406,62.50000691264148) translate(0 18.589501953125)"/><use xlink:href="#c" transform="matrix(1,0,0,1,-836.1448783503406,62.50000691264148) translate(0 18.589501953125)"/><use xlink:href="#j" transform="matrix(1,0,0,1,-1016.1448783503406,92.50000691264148) translate(0 18.589501953125)"/><use xlink:href="#c" transform="matrix(1,0,0,1,-836.1448783503406,92.50000691264148) translate(0 18.589501953125)"/><use xlink:href="#k" transform="matrix(1,0,0,1,-1016.1448783503406,122.50000691264148) translate(0 18.589501953125)"/><use xlink:href="#e" transform="matrix(1,0,0,1,-836.1448783503406,122.50000691264148) translate(0 18.589501953125)"/><path d="M-1041.64 135h-218.45M-1021.64 135h-20m0-10v20M-1279.28 135h20m-20 10l20-10m-20-10l20 10M-1041.64 105h-102.93a6 6 0 0 1-6-6V80.93a6 6 0 0 0-6-6h-102.93M-1021.64 105h-20m0-10v20M-1279.5 74.93h20m0 10v-20" stroke="#3a414a" fill="none"/><path d="M-1260 244.33a5 5 0 0 1 5-5h227.7a5 5 0 0 1 5 5v120a5 5 0 0 1-5 5H-1255a5 5 0 0 1-5-5z" fill="#fff"/><path d="M-1260 279.33v-35a5 5 0 0 1 5-5h227.7a5 5 0 0 1 5 5v35" fill="#dedeff"/><path d="M-1260 244.33a5 5 0 0 1 5-5h227.7a5 5 0 0 1 5 5v120a5 5 0 0 1-5 5H-1255a5 5 0 0 1-5-5zM-1260 279.33h237.7M-1141.14 279.33v90" stroke="#282c33" fill="none"/><use xlink:href="#l" transform="matrix(1,0,0,1,-1250,239.33118683166026) translate(0 26.089501953125)"/><use xlink:href="#m" transform="matrix(1,0,0,1,-1255,281.83118683166026) translate(0 18.589501953125)"/><use xlink:href="#c" transform="matrix(1,0,0,1,-1136.1448783503406,281.83118683166026) translate(0 18.589501953125)"/><use xlink:href="#n" transform="matrix(1,0,0,1,-1255,311.83118683166026) translate(0 18.589501953125)"/><use xlink:href="#e" transform="matrix(1,0,0,1,-1136.1448783503406,311.83118683166026) translate(0 18.589501953125)"/><use xlink:href="#f" transform="matrix(1,0,0,1,-1255,341.83118683166026) translate(0 18.589501953125)"/><use xlink:href="#c" transform="matrix(1,0,0,1,-1136.1448783503406,341.83118683166026) translate(0 18.589501953125)"/><path d="M-640.64 74.97H-606a6 6 0 0 1 6 6v267.57a6 6 0 0 1-6 6h-396.38M-660.64 74.97h20m0 10v-20M-1021.57 354.54h20m-20 10l20-10m-20-10l20 10" stroke="#3a414a" fill="none"/><path d="M-1840 244.33a5 5 0 0 1 5-5h210a5 5 0 0 1 5 5v120a5 5 0 0 1-5 5h-210a5 5 0 0 1-5-5z" fill="#fff"/><path d="M-1840 279.33v-35a5 5 0 0 1 5-5h210a5 5 0 0 1 5 5v35" fill="#dedeff"/><path d="M-1840 244.33a5 5 0 0 1 5-5h210a5 5 0 0 1 5 5v120a5 5 0 0 1-5 5h-210a5 5 0 0 1-5-5zM-1840 279.33h220M-1730 279.33v90" stroke="#282c33" fill="none"/><use xlink:href="#o" transform="matrix(1,0,0,1,-1830,239.33118683166026) translate(0 26.089501953125)"/><use xlink:href="#p" transform="matrix(1,0,0,1,-1835,281.83118683166026) translate(0 18.589501953125)"/><use xlink:href="#c" transform="matrix(1,0,0,1,-1725,281.83118683166026) translate(0 18.589501953125)"/><use xlink:href="#q" transform="matrix(1,0,0,1,-1835,311.83118683166026) translate(0 18.589501953125)"/><use xlink:href="#e" transform="matrix(1,0,0,1,-1725,311.83118683166026) translate(0 18.589501953125)"/><use xlink:href="#r" transform="matrix(1,0,0,1,-1835,341.83118683166026) translate(0 18.589501953125)"/><use xlink:href="#e" transform="matrix(1,0,0,1,-1725,341.83118683166026) translate(0 18.589501953125)"/><path d="M-1530 244.33a5 5 0 0 1 5-5h210a5 5 0 0 1 5 5v90a5 5 0 0 1-5 5h-210a5 5 0 0 1-5-5z" fill="#fff"/><path d="M-1530 279.33v-35a5 5 0 0 1 5-5h210a5 5 0 0 1 5 5v35" fill="#dedeff"/><path d="M-1530 244.33a5 5 0 0 1 5-5h210a5 5 0 0 1 5 5v90a5 5 0 0 1-5 5h-210a5 5 0 0 1-5-5zM-1530 279.33h220M-1420 279.33v60" stroke="#282c33" fill="none"/><use xlink:href="#s" transform="matrix(1,0,0,1,-1520,239.33118683166026) translate(0 26.089501953125)"/><use xlink:href="#p" transform="matrix(1,0,0,1,-1525,281.83118683166026) translate(0 18.589501953125)"/><use xlink:href="#c" transform="matrix(1,0,0,1,-1415,281.83118683166026) translate(0 18.589501953125)"/><use xlink:href="#m" transform="matrix(1,0,0,1,-1525,311.83118683166026) translate(0 18.589501953125)"/><use xlink:href="#c" transform="matrix(1,0,0,1,-1415,311.83118683166026) translate(0 18.589501953125)"/><path d="M-1599.5 294.3h49.6M-1619.5 294.3h20m0 10v-20M-1530.72 294.3h-20m20-10l-20 10m20 10l-20-10M-1280.5 294.3a4.5 4.5 0 0 0-4.5 4.5v20.6a5.1 5.1 0 0 1-5.1 5.1M-1260.5 294.3h-20m0-10v20M-1309.28 324.5h20m-20 10l20-10m-20-10l20 10" stroke="#3a414a" fill="none"/><path d="M-1360 433.66a5 5 0 0 1 5-5h210a5 5 0 0 1 5 5v120a5 5 0 0 1-5 5h-210a5 5 0 0 1-5-5z" fill="#fff"/><path d="M-1360 468.66v-35a5 5 0 0 1 5-5h210a5 5 0 0 1 5 5v35" fill="#dedeff"/><path d="M-1360 433.66a5 5 0 0 1 5-5h210a5 5 0 0 1 5 5v120a5 5 0 0 1-5 5h-210a5 5 0 0 1-5-5zM-1360 468.66h220M-1250 468.66v90" stroke="#282c33" fill="none"/><use xlink:href="#t" transform="matrix(1,0,0,1,-1350,428.6623736633205) translate(0 26.089501953125)"/><use xlink:href="#u" transform="matrix(1,0,0,1,-1355,471.1623736633205) translate(0 18.589501953125)"/><use xlink:href="#c" transform="matrix(1,0,0,1,-1245,471.1623736633205) translate(0 18.589501953125)"/><use xlink:href="#v" transform="matrix(1,0,0,1,-1355,501.1623736633205) translate(0 18.589501953125)"/><use xlink:href="#e" transform="matrix(1,0,0,1,-1245,501.1623736633205) translate(0 18.589501953125)"/><use xlink:href="#r" transform="matrix(1,0,0,1,-1355,531.1623736633205) translate(0 18.589501953125)"/><use xlink:href="#e" transform="matrix(1,0,0,1,-1245,531.1623736633205) translate(0 18.589501953125)"/><path d="M-1020 448.66a5 5 0 0 1 5-5h210a5 5 0 0 1 5 5v120a5 5 0 0 1-5 5h-210a5 5 0 0 1-5-5z" fill="#fff"/><path d="M-1020 483.66v-35a5 5 0 0 1 5-5h210a5 5 0 0 1 5 5v35" fill="#dedeff"/><path d="M-1020 448.66a5 5 0 0 1 5-5h210a5 5 0 0 1 5 5v120a5 5 0 0 1-5 5h-210a5 5 0 0 1-5-5zM-1020 483.66h220M-910 483.66v90" stroke="#282c33" fill="none"/><use xlink:href="#w" transform="matrix(1,0,0,1,-1010,443.6623736633205) translate(0 26.089501953125)"/><use xlink:href="#x" transform="matrix(1,0,0,1,-1015,486.1623736633205) translate(0 18.589501953125)"/><use xlink:href="#c" transform="matrix(1,0,0,1,-905,486.1623736633205) translate(0 18.589501953125)"/><use xlink:href="#y" transform="matrix(1,0,0,1,-1015,516.1623736633205) translate(0 18.589501953125)"/><use xlink:href="#z" transform="matrix(1,0,0,1,-905,516.1623736633205) translate(0 18.589501953125)"/><use xlink:href="#u" transform="matrix(1,0,0,1,-1015,546.1623736633205) translate(0 18.589501953125)"/><use xlink:href="#c" transform="matrix(1,0,0,1,-905,546.1623736633205) translate(0 18.589501953125)"/><path d="M-1119.5 483.62h33.5a6 6 0 0 1 6 6v63.27a6 6 0 0 0 6 6h34.1M-1139.5 483.62h20m0 10v-20M-1020.72 558.9h-20m20-10l-20 10m20 10l-20-10" stroke="#3a414a" fill="none"/><path d="M-920 185a5 5 0 0 1 5-5h210a5 5 0 0 1 5 5v150a5 5 0 0 1-5 5h-210a5 5 0 0 1-5-5z" fill="#fff"/><path d="M-920 220v-35a5 5 0 0 1 5-5h210a5 5 0 0 1 5 5v35" fill="#dedeff"/><path d="M-920 185a5 5 0 0 1 5-5h210a5 5 0 0 1 5 5v150a5 5 0 0 1-5 5h-210a5 5 0 0 1-5-5zM-920 220h220M-810 220v120" stroke="#282c33" fill="none"/><use xlink:href="#A" transform="matrix(1,0,0,1,-910,180) translate(0 26.089501953125)"/><use xlink:href="#B" transform="matrix(1,0,0,1,-915,222.5) translate(0 18.589501953125)"/><use xlink:href="#C" transform="matrix(1,0,0,1,-805,222.5) translate(0 18.589501953125)"/><use xlink:href="#D" transform="matrix(1,0,0,1,-915,252.5) translate(0 18.589501953125)"/><use xlink:href="#E" transform="matrix(1,0,0,1,-805,252.5) translate(0 18.589501953125)"/><use xlink:href="#F" transform="matrix(1,0,0,1,-915,282.5) translate(0 18.589501953125)"/><use xlink:href="#h" transform="matrix(1,0,0,1,-805,282.5) translate(0 18.589501953125)"/><use xlink:href="#x" transform="matrix(1,0,0,1,-915,312.5) translate(0 18.589501953125)"/><use xlink:href="#c" transform="matrix(1,0,0,1,-805,312.5) translate(0 18.589501953125)"/><path d="M-779.5 498.62h14a6 6 0 0 0 6-6v-94.8a6 6 0 0 0-6-6h-189a6 6 0 0 1-6-6V331a6 6 0 0 1 6-6h14.6M-799.5 498.62h20m0 10v-20M-920.72 325h-20m20-10l-20 10m20 10l-20-10M-1001.8 294.3h24.65a6 6 0 0 0 6-6v-47.4a6 6 0 0 1 6-6h25.24M-1021.8 294.3h20m0 10v-20M-920.72 234.9h-20m20-10l-20 10m20 10l-20-10" stroke="#3a414a" fill="none"/><defs><path d="M338-670V0H158v-1118h173l1 207c72-158 192-221 342-221 226 0 378 139 378 422V0H872v-695c0-172-96-275-252-275-161 0-282 109-282 300" id="G"/><path d="M338-670V0H158v-1490h180v566c73-149 190-208 336-208 226 0 379 139 379 422V0H872v-695c0-172-96-275-252-275-161 0-282 109-282 300" id="H"/><path d="M471 26C259 26 90-98 90-318c0-256 228-303 435-329 202-27 287-16 287-108 0-139-79-219-234-219-161 0-248 86-283 164l-173-57c86-203 278-265 451-265 150 0 419 46 419 395V0H815v-152h-12C765-73 660 26 471 26zm31-159c199 0 310-134 310-271v-155c-30 35-226 55-295 64-131 17-246 59-246 186 0 116 97 176 231 176" id="I"/><path d="M934 0v166H0V0h934" id="J"/><path d="M481 0L54-1118h197c107 314 236 620 325 951 87-331 217-637 324-951h197L670 0H481" id="K"/><path d="M158 0v-1118h180V0H158zm91-1301c-68 0-125-53-125-119s57-119 125-119c69 0 126 53 126 119s-57 119-126 119" id="L"/><path d="M628 24c-324 0-524-230-524-574 0-343 198-582 503-582 237 0 487 146 487 559v75H286c9 234 145 362 343 362 132 0 231-58 273-172l174 48C1024-91 857 24 628 24zM287-650h624c-17-190-120-322-304-322-192 0-309 151-320 322" id="M"/><g id="a"><use transform="matrix(0.008173828125000001,0,0,0.008173828125000001,0,0)" xlink:href="#G"/><use transform="matrix(0.008173828125000001,0,0,0.008173828125000001,9.89033203125,0)" xlink:href="#H"/><use transform="matrix(0.008173828125000001,0,0,0.008173828125000001,19.788837890625004,0)" xlink:href="#I"/><use transform="matrix(0.008173828125000001,0,0,0.008173828125000001,29.188740234375004,0)" xlink:href="#G"/><use transform="matrix(0.008173828125000001,0,0,0.008173828125000001,39.079072265625,0)" xlink:href="#J"/><use transform="matrix(0.008173828125000001,0,0,0.008173828125000001,45.389267578125,0)" xlink:href="#K"/><use transform="matrix(0.008173828125000001,0,0,0.008173828125000001,54.79734375,0)" xlink:href="#L"/><use transform="matrix(0.008173828125000001,0,0,0.008173828125000001,58.8515625,0)" xlink:href="#M"/><use transform="matrix(0.008173828125000001,0,0,0.008173828125000001,68.61111328125,0)" xlink:href="#G"/></g><path d="M158 0v-1118h175l1 205c55-151 181-225 313-225 147 0 245 90 285 228 53-141 190-228 352-228 194 0 352 125 352 384V0h-181v-749c0-161-105-225-225-225-151 0-243 103-243 244V0H807v-767c0-124-93-207-219-207-131 0-250 92-250 270V0H158" id="N"/><g id="b"><use transform="matrix(0.008173828125000001,0,0,0.008173828125000001,0,0)" xlink:href="#N"/><use transform="matrix(0.008173828125000001,0,0,0.008173828125000001,14.663847656250002,0)" xlink:href="#I"/><use transform="matrix(0.008173828125000001,0,0,0.008173828125000001,24.063750000000006,0)" xlink:href="#J"/><use transform="matrix(0.008173828125000001,0,0,0.008173828125000001,32.26209960937501,0)" xlink:href="#G"/><use transform="matrix(0.008173828125000001,0,0,0.008173828125000001,41.907216796875005,0)" xlink:href="#K"/></g><path d="M613 24c-304 0-509-231-509-576 0-350 205-580 509-580 216 0 392 114 453 309l-173 49c-33-115-133-197-280-197-223 0-326 196-326 419 0 220 103 415 326 415 150 0 252-85 285-206l172 49C1010-95 832 24 613 24" id="O"/><path d="M158 0v-1118h174v172h12c41-113 157-188 290-188 26 0 70 2 91 3v181c-11-2-60-10-108-10-161 0-279 109-279 260V0H158" id="P"/><g id="c"><use transform="matrix(0.008173828125000001,0,0,0.008173828125000001,0,0)" xlink:href="#O"/><use transform="matrix(0.008173828125000001,0,0,0.008173828125000001,9.563378906250001,0)" xlink:href="#H"/><use transform="matrix(0.008173828125000001,0,0,0.008173828125000001,19.461884765625,0)" xlink:href="#I"/><use transform="matrix(0.008173828125000001,0,0,0.008173828125000001,28.861787109375,0)" xlink:href="#P"/></g><path d="M598-1118v154H368v674c0 100 37 144 132 144 23 0 62-6 92-12L629-6c-37 13-88 20-134 20-193 0-307-107-307-290v-688H20v-154h168v-266h180v266h230" id="Q"/><g id="d"><use transform="matrix(0.008173828125000001,0,0,0.008173828125000001,0,0)" xlink:href="#Q"/><use transform="matrix(0.008173828125000001,0,0,0.008173828125000001,5.312988281250001,0)" xlink:href="#M"/><use transform="matrix(0.008173828125000001,0,0,0.008173828125000001,15.072539062500002,0)" xlink:href="#G"/><use transform="matrix(0.008173828125000001,0,0,0.008173828125000001,24.962871093750003,0)" xlink:href="#J"/><use transform="matrix(0.008173828125000001,0,0,0.008173828125000001,33.161220703125004,0)" xlink:href="#G"/><use transform="matrix(0.008173828125000001,0,0,0.008173828125000001,42.806337890625,0)" xlink:href="#K"/></g><g id="e"><use transform="matrix(0.008173828125000001,0,0,0.008173828125000001,0,0)" xlink:href="#G"/><use transform="matrix(0.008173828125000001,0,0,0.008173828125000001,9.6451171875,0)" xlink:href="#K"/><use transform="matrix(0.008173828125000001,0,0,0.008173828125000001,18.971455078125004,0)" xlink:href="#I"/><use transform="matrix(0.008173828125000001,0,0,0.008173828125000001,28.371357421875004,0)" xlink:href="#P"/><use transform="matrix(0.008173828125000001,0,0,0.008173828125000001,34.395468750000006,0)" xlink:href="#O"/><use transform="matrix(0.008173828125000001,0,0,0.008173828125000001,43.95884765625001,0)" xlink:href="#H"/><use transform="matrix(0.008173828125000001,0,0,0.008173828125000001,53.85735351562501,0)" xlink:href="#I"/><use transform="matrix(0.008173828125000001,0,0,0.008173828125000001,63.25725585937501,0)" xlink:href="#P"/></g><path d="M677 24c-213 0-288-135-325-197h-20V0H158v-1490h180v551h14c37-59 106-193 324-193 279 0 474 222 474 576 0 356-194 580-473 580zm-27-161c209 0 317-186 317-421 0-232-105-413-317-413-206 0-314 166-314 413 0 249 111 421 314 421" id="R"/><path d="M158 418v-1536h174v179h20c37-59 106-193 324-193 279 0 474 222 474 576 0 356-194 580-473 580-213 0-288-135-325-197h-14v591H158zm492-555c209 0 317-186 317-421 0-232-105-413-317-413-206 0-314 166-314 413 0 249 111 421 314 421" id="S"/><g id="f"><use transform="matrix(0.008173828125000001,0,0,0.008173828125000001,0,0)" xlink:href="#N"/><use transform="matrix(0.008173828125000001,0,0,0.008173828125000001,14.663847656250002,0)" xlink:href="#I"/><use transform="matrix(0.008173828125000001,0,0,0.008173828125000001,24.063750000000006,0)" xlink:href="#J"/><use transform="matrix(0.008173828125000001,0,0,0.008173828125000001,32.26209960937501,0)" xlink:href="#R"/><use transform="matrix(0.008173828125000001,0,0,0.008173828125000001,42.51208007812501,0)" xlink:href="#S"/></g><path d="M338-1490V0H158v-1490h180" id="T"/><path d="M537 14c-226 0-379-139-379-422v-710h180v695c0 172 97 275 253 275 160 0 281-109 281-300v-670h181V0H879v-209C806-46 684 14 537 14" id="U"/><path d="M613 24c-304 0-509-231-509-576 0-350 205-580 509-580 305 0 511 230 511 580 0 345-206 576-511 576zm0-161c226 0 329-195 329-415 0-222-103-419-329-419-223 0-326 196-326 419 0 220 103 415 326 415" id="V"/><path d="M611 442c-248 0-391-105-460-228l146-94c47 65 117 165 314 165 178 0 307-82 307-266v-224h-17C863-141 792-18 576-18c-268 0-472-195-472-546 0-346 197-568 476-568 216 0 288 133 326 193h17v-179h175V29c0 289-215 413-487 413zm-5-620c203 0 314-146 314-390 0-237-108-403-314-403-213 0-319 180-319 403 0 230 109 390 319 390" id="W"/><g id="g"><use transform="matrix(0.008173828125000001,0,0,0.008173828125000001,0,0)" xlink:href="#T"/><use transform="matrix(0.008173828125000001,0,0,0.008173828125000001,4.05421875,0)" xlink:href="#U"/><use transform="matrix(0.008173828125000001,0,0,0.008173828125000001,13.952724609375002,0)" xlink:href="#V"/><use transform="matrix(0.008173828125000001,0,0,0.008173828125000001,23.990185546875004,0)" xlink:href="#G"/><use transform="matrix(0.008173828125000001,0,0,0.008173828125000001,33.88051757812501,0)" xlink:href="#W"/></g><path d="M577 24c-279 0-473-224-473-580 0-354 195-576 474-576 218 0 287 134 324 193h14v-551h180V0H922v-173h-20C865-111 790 24 577 24zm27-161c203 0 314-172 314-421 0-247-108-413-314-413-212 0-317 181-317 413 0 235 108 421 317 421" id="X"/><g id="h"><use transform="matrix(0.008173828125000001,0,0,0.008173828125000001,0,0)" xlink:href="#X"/><use transform="matrix(0.008173828125000001,0,0,0.008173828125000001,10.249980468750001,0)" xlink:href="#V"/><use transform="matrix(0.008173828125000001,0,0,0.008173828125000001,20.287441406250004,0)" xlink:href="#U"/><use transform="matrix(0.008173828125000001,0,0,0.008173828125000001,30.185947265625003,0)" xlink:href="#R"/><use transform="matrix(0.008173828125000001,0,0,0.008173828125000001,40.43592773437501,0)" xlink:href="#T"/><use transform="matrix(0.008173828125000001,0,0,0.008173828125000001,44.490146484375,0)" xlink:href="#M"/></g><g id="i"><use transform="matrix(0.008173828125000001,0,0,0.008173828125000001,0,0)" xlink:href="#R"/><use transform="matrix(0.008173828125000001,0,0,0.008173828125000001,10.249980468750001,0)" xlink:href="#V"/><use transform="matrix(0.008173828125000001,0,0,0.008173828125000001,20.287441406250004,0)" xlink:href="#J"/><use transform="matrix(0.008173828125000001,0,0,0.008173828125000001,28.485791015625004,0)" xlink:href="#S"/><use transform="matrix(0.008173828125000001,0,0,0.008173828125000001,38.73577148437501,0)" xlink:href="#H"/><use transform="matrix(0.008173828125000001,0,0,0.008173828125000001,48.63427734375001,0)" xlink:href="#I"/><use transform="matrix(0.008173828125000001,0,0,0.008173828125000001,58.03417968750001,0)" xlink:href="#G"/></g><path d="M1096 418H916v-591h-14C865-111 790 24 577 24c-279 0-473-224-473-580 0-354 195-576 474-576 218 0 287 134 324 193h20v-179h174V418zM604-137c203 0 314-172 314-421 0-247-108-413-314-413-212 0-317 181-317 413 0 235 108 421 317 421" id="Y"/><g id="j"><use transform="matrix(0.008173828125000001,0,0,0.008173828125000001,0,0)" xlink:href="#N"/><use transform="matrix(0.008173828125000001,0,0,0.008173828125000001,14.663847656250002,0)" xlink:href="#I"/><use transform="matrix(0.008173828125000001,0,0,0.008173828125000001,24.063750000000006,0)" xlink:href="#J"/><use transform="matrix(0.008173828125000001,0,0,0.008173828125000001,31.698105468750008,0)" xlink:href="#Y"/><use transform="matrix(0.008173828125000001,0,0,0.008173828125000001,41.94808593750001,0)" xlink:href="#T"/></g><g id="k"><use transform="matrix(0.008173828125000001,0,0,0.008173828125000001,0,0)" xlink:href="#Q"/><use transform="matrix(0.008173828125000001,0,0,0.008173828125000001,5.312988281250001,0)" xlink:href="#M"/><use transform="matrix(0.008173828125000001,0,0,0.008173828125000001,15.072539062500002,0)" xlink:href="#G"/><use transform="matrix(0.008173828125000001,0,0,0.008173828125000001,24.962871093750003,0)" xlink:href="#J"/><use transform="matrix(0.008173828125000001,0,0,0.008173828125000001,33.161220703125004,0)" xlink:href="#R"/><use transform="matrix(0.008173828125000001,0,0,0.008173828125000001,43.41120117187501,0)" xlink:href="#S"/></g><g id="l"><use transform="matrix(0.008173828125000001,0,0,0.008173828125000001,0,0)" xlink:href="#N"/><use transform="matrix(0.008173828125000001,0,0,0.008173828125000001,14.663847656250002,0)" xlink:href="#I"/><use transform="matrix(0.008173828125000001,0,0,0.008173828125000001,24.063750000000006,0)" xlink:href="#Q"/><use transform="matrix(0.008173828125000001,0,0,0.008173828125000001,29.540214843750007,0)" xlink:href="#J"/><use transform="matrix(0.008173828125000001,0,0,0.008173828125000001,37.73856445312501,0)" xlink:href="#H"/><use transform="matrix(0.008173828125000001,0,0,0.008173828125000001,47.63707031250001,0)" xlink:href="#I"/><use transform="matrix(0.008173828125000001,0,0,0.008173828125000001,57.03697265625001,0)" xlink:href="#G"/><use transform="matrix(0.008173828125000001,0,0,0.008173828125000001,66.92730468750001,0)" xlink:href="#W"/></g><path d="M180 0v-1490h270l367 940c28 72 75 218 110 339 35-117 81-264 110-339l362-940h271V0h-187c2-448-5-837 7-1287-157 497-311 829-483 1287H842C666-458 514-784 354-1284c12 438 5 843 7 1284H180" id="Z"/><path d="M657 26c-323 0-524-166-541-416h195c15 169 171 246 346 246 202 0 356-106 356-265 5-203-294-238-475-293-239-73-380-191-380-389 0-252 224-419 512-419 294 0 499 171 508 396H992c-17-145-151-228-328-228-193 0-321 102-321 242 0 156 175 211 284 241l149 41c160 44 422 134 422 412 0 244-197 432-541 432" id="aa"/><path d="M180 0v-1490h190v644h782v-644h190V0h-190v-678H370V0H180" id="ab"/><g id="m"><use transform="matrix(0.008173828125000001,0,0,0.008173828125000001,0,0)" xlink:href="#Z"/><use transform="matrix(0.008173828125000001,0,0,0.008173828125000001,15.121582031250002,0)" xlink:href="#aa"/><use transform="matrix(0.008173828125000001,0,0,0.008173828125000001,25.861992187500004,0)" xlink:href="#Z"/><use transform="matrix(0.008173828125000001,0,0,0.008173828125000001,40.98357421875001,0)" xlink:href="#ab"/></g><path d="M98-1322v-168h1126v168H757V0H567v-1322H98" id="ac"/><g id="n"><use transform="matrix(0.008173828125000001,0,0,0.008173828125000001,0,0)" xlink:href="#ac"/><use transform="matrix(0.008173828125000001,0,0,0.008173828125000001,9.49798828125,0)" xlink:href="#M"/><use transform="matrix(0.008173828125000001,0,0,0.008173828125000001,19.2575390625,0)" xlink:href="#G"/><use transform="matrix(0.008173828125000001,0,0,0.008173828125000001,29.147871093750002,0)" xlink:href="#Z"/><use transform="matrix(0.008173828125000001,0,0,0.008173828125000001,44.269453125000005,0)" xlink:href="#ab"/></g><g id="o"><use transform="matrix(0.008173828125000001,0,0,0.008173828125000001,0,0)" xlink:href="#G"/><use transform="matrix(0.008173828125000001,0,0,0.008173828125000001,9.89033203125,0)" xlink:href="#H"/><use transform="matrix(0.008173828125000001,0,0,0.008173828125000001,19.788837890625004,0)" xlink:href="#I"/><use transform="matrix(0.008173828125000001,0,0,0.008173828125000001,29.188740234375004,0)" xlink:href="#J"/><use transform="matrix(0.008173828125000001,0,0,0.008173828125000001,36.823095703125006,0)" xlink:href="#O"/><use transform="matrix(0.008173828125000001,0,0,0.008173828125000001,46.38647460937501,0)" xlink:href="#U"/><use transform="matrix(0.008173828125000001,0,0,0.008173828125000001,56.28498046875001,0)" xlink:href="#G"/><use transform="matrix(0.008173828125000001,0,0,0.008173828125000001,66.1753125,0)" xlink:href="#W"/><use transform="matrix(0.008173828125000001,0,0,0.008173828125000001,76.441640625,0)" xlink:href="#J"/><use transform="matrix(0.008173828125000001,0,0,0.008173828125000001,84.07599609375,0)" xlink:href="#O"/><use transform="matrix(0.008173828125000001,0,0,0.008173828125000001,93.8028515625,0)" xlink:href="#I"/><use transform="matrix(0.008173828125000001,0,0,0.008173828125000001,103.20275390625,0)" xlink:href="#S"/></g><g id="p"><use transform="matrix(0.008173828125000001,0,0,0.008173828125000001,0,0)" xlink:href="#N"/><use transform="matrix(0.008173828125000001,0,0,0.008173828125000001,14.663847656250002,0)" xlink:href="#I"/><use transform="matrix(0.008173828125000001,0,0,0.008173828125000001,24.063750000000006,0)" xlink:href="#J"/><use transform="matrix(0.008173828125000001,0,0,0.008173828125000001,32.26209960937501,0)" xlink:href="#G"/><use transform="matrix(0.008173828125000001,0,0,0.008173828125000001,42.15243164062501,0)" xlink:href="#O"/><use transform="matrix(0.008173828125000001,0,0,0.008173828125000001,51.71581054687501,0)" xlink:href="#O"/></g><g id="q"><use transform="matrix(0.008173828125000001,0,0,0.008173828125000001,0,0)" xlink:href="#Q"/><use transform="matrix(0.008173828125000001,0,0,0.008173828125000001,5.312988281250001,0)" xlink:href="#M"/><use transform="matrix(0.008173828125000001,0,0,0.008173828125000001,15.072539062500002,0)" xlink:href="#G"/><use transform="matrix(0.008173828125000001,0,0,0.008173828125000001,24.962871093750003,0)" xlink:href="#J"/><use transform="matrix(0.008173828125000001,0,0,0.008173828125000001,32.597226562500005,0)" xlink:href="#O"/><use transform="matrix(0.008173828125000001,0,0,0.008173828125000001,42.160605468750006,0)" xlink:href="#O"/></g><g id="r"><use transform="matrix(0.008173828125000001,0,0,0.008173828125000001,0,0)" xlink:href="#X"/><use transform="matrix(0.008173828125000001,0,0,0.008173828125000001,10.249980468750001,0)" xlink:href="#L"/><use transform="matrix(0.008173828125000001,0,0,0.008173828125000001,14.304199218750002,0)" xlink:href="#I"/><use transform="matrix(0.008173828125000001,0,0,0.008173828125000001,23.704101562500004,0)" xlink:href="#J"/><use transform="matrix(0.008173828125000001,0,0,0.008173828125000001,31.338457031250005,0)" xlink:href="#O"/><use transform="matrix(0.008173828125000001,0,0,0.008173828125000001,40.90183593750001,0)" xlink:href="#H"/><use transform="matrix(0.008173828125000001,0,0,0.008173828125000001,50.80034179687501,0)" xlink:href="#L"/></g><g id="s"><use transform="matrix(0.008173828125000001,0,0,0.008173828125000001,0,0)" xlink:href="#O"/><use transform="matrix(0.008173828125000001,0,0,0.008173828125000001,9.563378906250001,0)" xlink:href="#U"/><use transform="matrix(0.008173828125000001,0,0,0.008173828125000001,19.461884765625,0)" xlink:href="#G"/><use transform="matrix(0.008173828125000001,0,0,0.008173828125000001,29.352216796875002,0)" xlink:href="#W"/><use transform="matrix(0.008173828125000001,0,0,0.008173828125000001,39.618544921875,0)" xlink:href="#J"/><use transform="matrix(0.008173828125000001,0,0,0.008173828125000001,47.252900390625,0)" xlink:href="#O"/><use transform="matrix(0.008173828125000001,0,0,0.008173828125000001,56.979755859375004,0)" xlink:href="#I"/><use transform="matrix(0.008173828125000001,0,0,0.008173828125000001,66.379658203125,0)" xlink:href="#S"/></g><path d="M158 0v-1490h180v865h22l478-493h223L593-638 1096 0H865L456-523 338-412V0H158" id="ad"/><g id="t"><use transform="matrix(0.008173828125000001,0,0,0.008173828125000001,0,0)" xlink:href="#ad"/><use transform="matrix(0.008173828125000001,0,0,0.008173828125000001,9.187382812500001,0)" xlink:href="#H"/><use transform="matrix(0.008173828125000001,0,0,0.008173828125000001,19.085888671875004,0)" xlink:href="#I"/><use transform="matrix(0.008173828125000001,0,0,0.008173828125000001,28.485791015625004,0)" xlink:href="#O"/><use transform="matrix(0.008173828125000001,0,0,0.008173828125000001,38.049169921875006,0)" xlink:href="#H"/><use transform="matrix(0.008173828125000001,0,0,0.008173828125000001,47.947675781250005,0)" xlink:href="#J"/><use transform="matrix(0.008173828125000001,0,0,0.008173828125000001,56.146025390625006,0)" xlink:href="#H"/><use transform="matrix(0.008173828125000001,0,0,0.008173828125000001,66.04453125,0)" xlink:href="#I"/><use transform="matrix(0.008173828125000001,0,0,0.008173828125000001,75.44443359375,0)" xlink:href="#G"/><use transform="matrix(0.008173828125000001,0,0,0.008173828125000001,85.33476562500002,0)" xlink:href="#W"/></g><g id="u"><use transform="matrix(0.008173828125000001,0,0,0.008173828125000001,0,0)" xlink:href="#N"/><use transform="matrix(0.008173828125000001,0,0,0.008173828125000001,14.663847656250002,0)" xlink:href="#I"/><use transform="matrix(0.008173828125000001,0,0,0.008173828125000001,24.063750000000006,0)" xlink:href="#J"/><use transform="matrix(0.008173828125000001,0,0,0.008173828125000001,32.26209960937501,0)" xlink:href="#ad"/><use transform="matrix(0.008173828125000001,0,0,0.008173828125000001,41.449482421875004,0)" xlink:href="#H"/></g><g id="v"><use transform="matrix(0.008173828125000001,0,0,0.008173828125000001,0,0)" xlink:href="#Q"/><use transform="matrix(0.008173828125000001,0,0,0.008173828125000001,5.312988281250001,0)" xlink:href="#M"/><use transform="matrix(0.008173828125000001,0,0,0.008173828125000001,15.072539062500002,0)" xlink:href="#G"/><use transform="matrix(0.008173828125000001,0,0,0.008173828125000001,24.962871093750003,0)" xlink:href="#J"/><use transform="matrix(0.008173828125000001,0,0,0.008173828125000001,33.161220703125004,0)" xlink:href="#ad"/><use transform="matrix(0.008173828125000001,0,0,0.008173828125000001,42.348603515625,0)" xlink:href="#H"/></g><g id="w"><use transform="matrix(0.008173828125000001,0,0,0.008173828125000001,0,0)" xlink:href="#X"/><use transform="matrix(0.008173828125000001,0,0,0.008173828125000001,10.249980468750001,0)" xlink:href="#V"/><use transform="matrix(0.008173828125000001,0,0,0.008173828125000001,20.287441406250004,0)" xlink:href="#G"/><use transform="matrix(0.008173828125000001,0,0,0.008173828125000001,30.177773437500004,0)" xlink:href="#J"/><use transform="matrix(0.008173828125000001,0,0,0.008173828125000001,38.376123046875,0)" xlink:href="#H"/><use transform="matrix(0.008173828125000001,0,0,0.008173828125000001,48.27462890625,0)" xlink:href="#I"/><use transform="matrix(0.008173828125000001,0,0,0.008173828125000001,57.67453125,0)" xlink:href="#G"/><use transform="matrix(0.008173828125000001,0,0,0.008173828125000001,67.56486328125,0)" xlink:href="#W"/></g><path d="M538 24C308 24 148-78 108-271l171-41c32 123 123 178 257 178 156 0 256-77 256-169 0-77-54-128-164-154l-186-44c-203-48-300-148-300-305 0-192 176-326 414-326 230 0 351 112 402 269l-163 42c-31-80-94-158-238-158-133 0-233 69-233 162 0 83 57 129 188 160l169 40c203 48 298 149 298 302 0 196-179 339-441 339" id="ae"/><g id="x"><use transform="matrix(0.008173828125000001,0,0,0.008173828125000001,0,0)" xlink:href="#ae"/><use transform="matrix(0.008173828125000001,0,0,0.008173828125000001,8.835908203125001,0)" xlink:href="#V"/><use transform="matrix(0.008173828125000001,0,0,0.008173828125000001,18.873369140625,0)" xlink:href="#J"/><use transform="matrix(0.008173828125000001,0,0,0.008173828125000001,27.071718750000002,0)" xlink:href="#H"/><use transform="matrix(0.008173828125000001,0,0,0.008173828125000001,36.970224609375,0)" xlink:href="#L"/><use transform="matrix(0.008173828125000001,0,0,0.008173828125000001,41.024443359375,0)" xlink:href="#M"/><use transform="matrix(0.008173828125000001,0,0,0.008173828125000001,50.783994140625,0)" xlink:href="#U"/><use transform="matrix(0.008173828125000001,0,0,0.008173828125000001,60.118505859375,0)" xlink:href="#J"/><use transform="matrix(0.008173828125000001,0,0,0.008173828125000001,67.752861328125,0)" xlink:href="#X"/><use transform="matrix(0.008173828125000001,0,0,0.008173828125000001,78.00284179687499,0)" xlink:href="#H"/></g><path d="M140 405l46-156c120 36 205 19 263-150l32-93L54-1118h197c107 313 237 620 324 950 87-331 219-637 326-950h196L606 167c-68 178-176 259-334 259-64 0-113-12-132-21" id="af"/><g id="y"><use transform="matrix(0.008173828125000001,0,0,0.008173828125000001,0,0)" xlink:href="#G"/><use transform="matrix(0.008173828125000001,0,0,0.008173828125000001,9.89033203125,0)" xlink:href="#W"/><use transform="matrix(0.008173828125000001,0,0,0.008173828125000001,20.156660156250002,0)" xlink:href="#I"/><use transform="matrix(0.008173828125000001,0,0,0.008173828125000001,29.311347656250007,0)" xlink:href="#af"/><use transform="matrix(0.008173828125000001,0,0,0.008173828125000001,37.39526367187501,0)" xlink:href="#J"/><use transform="matrix(0.008173828125000001,0,0,0.008173828125000001,45.02961914062501,0)" xlink:href="#X"/><use transform="matrix(0.008173828125000001,0,0,0.008173828125000001,55.27959960937501,0)" xlink:href="#H"/></g><g id="z"><use transform="matrix(0.008173828125000001,0,0,0.008173828125000001,0,0)" xlink:href="#X"/><use transform="matrix(0.008173828125000001,0,0,0.008173828125000001,10.249980468750001,0)" xlink:href="#I"/><use transform="matrix(0.008173828125000001,0,0,0.008173828125000001,19.649882812500003,0)" xlink:href="#Q"/><use transform="matrix(0.008173828125000001,0,0,0.008173828125000001,24.962871093750003,0)" xlink:href="#M"/></g><g id="A"><use transform="matrix(0.008173828125000001,0,0,0.008173828125000001,0,0)" xlink:href="#O"/><use transform="matrix(0.008173828125000001,0,0,0.008173828125000001,9.563378906250001,0)" xlink:href="#H"/><use transform="matrix(0.008173828125000001,0,0,0.008173828125000001,19.461884765625,0)" xlink:href="#L"/><use transform="matrix(0.008173828125000001,0,0,0.008173828125000001,23.516103515625,0)" xlink:href="#J"/><use transform="matrix(0.008173828125000001,0,0,0.008173828125000001,31.150458984375003,0)" xlink:href="#Q"/><use transform="matrix(0.008173828125000001,0,0,0.008173828125000001,36.626923828125,0)" xlink:href="#L"/><use transform="matrix(0.008173828125000001,0,0,0.008173828125000001,40.681142578125005,0)" xlink:href="#M"/><use transform="matrix(0.008173828125000001,0,0,0.008173828125000001,50.440693359375004,0)" xlink:href="#Q"/><use transform="matrix(0.008173828125000001,0,0,0.008173828125000001,55.917158203125005,0)" xlink:href="#J"/><use transform="matrix(0.008173828125000001,0,0,0.008173828125000001,63.55151367187501,0)" xlink:href="#X"/><use transform="matrix(0.008173828125000001,0,0,0.008173828125000001,73.80149414062501,0)" xlink:href="#H"/></g><g id="B"><use transform="matrix(0.008173828125000001,0,0,0.008173828125000001,0,0)" xlink:href="#N"/><use transform="matrix(0.008173828125000001,0,0,0.008173828125000001,14.663847656250002,0)" xlink:href="#I"/><use transform="matrix(0.008173828125000001,0,0,0.008173828125000001,24.063750000000006,0)" xlink:href="#J"/><use transform="matrix(0.008173828125000001,0,0,0.008173828125000001,32.26209960937501,0)" xlink:href="#N"/><use transform="matrix(0.008173828125000001,0,0,0.008173828125000001,46.92594726562501,0)" xlink:href="#H"/></g><g id="C"><use transform="matrix(0.008173828125000001,0,0,0.008173828125000001,0,0)" xlink:href="#ac"/><use transform="matrix(0.008173828125000001,0,0,0.008173828125000001,9.75955078125,0)" xlink:href="#af"/><use transform="matrix(0.008173828125000001,0,0,0.008173828125000001,19.167626953125,0)" xlink:href="#S"/><use transform="matrix(0.008173828125000001,0,0,0.008173828125000001,29.417607421875005,0)" xlink:href="#M"/></g><g id="D"><use transform="matrix(0.008173828125000001,0,0,0.008173828125000001,0,0)" xlink:href="#ae"/><use transform="matrix(0.008173828125000001,0,0,0.008173828125000001,8.835908203125001,0)" xlink:href="#V"/><use transform="matrix(0.008173828125000001,0,0,0.008173828125000001,18.873369140625,0)" xlink:href="#J"/><use transform="matrix(0.008173828125000001,0,0,0.008173828125000001,27.071718750000002,0)" xlink:href="#T"/><use transform="matrix(0.008173828125000001,0,0,0.008173828125000001,31.125937500000003,0)" xlink:href="#U"/><use transform="matrix(0.008173828125000001,0,0,0.008173828125000001,41.024443359375006,0)" xlink:href="#V"/><use transform="matrix(0.008173828125000001,0,0,0.008173828125000001,51.06190429687501,0)" xlink:href="#G"/><use transform="matrix(0.008173828125000001,0,0,0.008173828125000001,60.952236328125004,0)" xlink:href="#W"/></g><g id="E"><use transform="matrix(0.008173828125000001,0,0,0.008173828125000001,0,0)" xlink:href="#L"/><use transform="matrix(0.008173828125000001,0,0,0.008173828125000001,4.05421875,0)" xlink:href="#G"/><use transform="matrix(0.008173828125000001,0,0,0.008173828125000001,13.944550781250001,0)" xlink:href="#Q"/></g><g id="F"><use transform="matrix(0.008173828125000001,0,0,0.008173828125000001,0,0)" xlink:href="#X"/><use transform="matrix(0.008173828125000001,0,0,0.008173828125000001,10.249980468750001,0)" xlink:href="#V"/><use transform="matrix(0.008173828125000001,0,0,0.008173828125000001,20.287441406250004,0)" xlink:href="#G"/><use transform="matrix(0.008173828125000001,0,0,0.008173828125000001,30.177773437500004,0)" xlink:href="#J"/><use transform="matrix(0.008173828125000001,0,0,0.008173828125000001,37.81212890625,0)" xlink:href="#W"/><use transform="matrix(0.008173828125000001,0,0,0.008173828125000001,48.078457031250004,0)" xlink:href="#L"/><use transform="matrix(0.008173828125000001,0,0,0.008173828125000001,52.13267578125,0)" xlink:href="#I"/></g></defs></g></svg>